<?xml version="1.0" ?><!DOCTYPE svg  PUBLIC '-//W3C//DTD SVG 1.1//EN'  'http://www.w3.org/Graphics/SVG/1.1/DTD/svg11.dtd'><svg enable-background="new 0 0 24 24" height="24px" id="Layer_1" version="1.1" viewBox="0 0 24 24" width="24px" xml:space="preserve" xmlns="http://www.w3.org/2000/svg" xmlns:xlink="http://www.w3.org/1999/xlink"><path d="M2,1h22c0-0.6-0.4-1-1-1H1C0.4,0,0,0.4,0,1v22c0,0.6,0.4,1,1,1h22c0.6,0,1-0.4,1-1V5c0-0.6-0.4-1-1-1H2V3h22V2H2V1z M22,15  h-7.3c0.2-0.3,0.3-0.6,0.3-1s-0.1-0.7-0.3-1H22V15z M22,6v6h-9c-1.1,0-2,0.9-2,2s0.9,2,2,2h9v6H2V6H22z M14,14c0,0.6-0.4,1-1,1  s-1-0.4-1-1s0.4-1,1-1S14,13.4,14,14z"/></svg>